<?xml version="1.0" standalone="no"?>
<!DOCTYPE svg PUBLIC "-//W3C//DTD SVG 20010904//EN"
 "http://www.w3.org/TR/2001/REC-SVG-20010904/DTD/svg10.dtd">
<svg version="1.0" xmlns="http://www.w3.org/2000/svg"
 width="260.000000pt" height="260.000000pt" viewBox="0 0 260.000000 260.000000"
 preserveAspectRatio="xMidYMid meet">
<metadata>
Created by potrace 1.11, written by Peter Selinger 2001-2013
</metadata>
<g transform="translate(0.000000,260.000000) scale(0.100000,-0.100000)"
fill="#000000" stroke="none">
<path d="M1150 1460 l0 -630 -80 0 -80 0 0 214 c0 189 -2 216 -18 235 -16 21
-25 22 -193 23 -119 0 -183 -4 -198 -12 -26 -13 -56 -76 -66 -135 -13 -79 -25
-105 -49 -105 -12 0 -32 -7 -44 -16 -21 -15 -22 -21 -22 -177 0 -203 10 -271
47 -309 36 -37 93 -39 128 -3 14 13 25 28 25 32 0 4 70 8 154 8 137 0 155 -2
159 -17 7 -25 67 -58 105 -58 26 0 43 9 69 35 28 28 38 33 49 24 8 -6 14 -20
14 -30 0 -18 18 -19 525 -19 l526 0 -3 142 -3 142 -385 0 -385 1 -2 620 c-1
341 -2 630 -3 643 0 22 -2 22 -135 22 l-135 0 0 -630z m-239 -210 c17 -10 19
-22 19 -130 0 -66 -2 -120 -4 -120 -2 0 -11 -3 -19 -6 -17 -6 -81 102 -66 112
5 3 9 14 9 25 0 19 -3 18 -47 -7 -65 -37 -71 -43 -53 -54 9 -5 19 -5 27 2 16
13 15 14 42 -39 11 -23 25 -44 31 -48 23 -14 7 -20 -45 -17 -38 3 -55 8 -55
17 0 8 -5 26 -12 40 -9 21 -18 25 -55 25 l-43 0 0 44 c0 25 -5 48 -11 52 -18
11 -34 -15 -34 -58 0 -35 -3 -42 -22 -44 -28 -5 -28 2 -8 93 25 109 26 111 87
116 118 8 240 6 259 -3z m382 -628 c33 -2 47 -7 47 -18 0 -11 -14 -14 -60 -14
l-60 0 0 63 c0 80 13 97 20 25 l5 -53 48 -3z m99 73 c5 -30 62 -28 66 3 7 48
22 19 22 -43 0 -37 -4 -65 -10 -65 -5 0 -10 11 -10 24 0 26 -23 40 -51 31 -12
-4 -19 -16 -19 -32 0 -14 -5 -23 -11 -21 -13 4 -24 101 -14 126 7 18 21 6 27
-23z m238 15 c0 -5 -19 -10 -42 -12 -57 -4 -62 -26 -6 -30 42 -3 43 -4 43 -38
l0 -35 -57 -3 c-47 -2 -58 0 -58 13 0 11 11 15 46 15 59 0 55 24 -4 28 -40 3
-42 5 -42 36 0 18 2 35 4 37 8 8 116 -3 116 -11z m212 5 c4 -5 8 -22 8 -37 0
-25 -3 -27 -47 -30 -27 -2 -48 -7 -48 -13 0 -5 21 -11 48 -13 33 -2 47 -7 47
-18 0 -11 -14 -14 -60 -14 l-60 0 0 40 c0 40 0 40 39 40 42 0 62 14 35 24 -9
3 -29 6 -45 6 -26 0 -37 9 -25 21 9 9 101 4 108 -6z m148 -60 l0 -66 -57 3
-58 3 -3 63 -3 62 61 0 60 0 0 -65z m148 3 l-3 -63 -57 -3 -58 -3 0 66 0 65
60 0 61 0 -3 -62z m-1073 -3 c14 -13 25 -33 25 -45 0 -32 -44 -70 -80 -70 -36
0 -80 38 -80 70 0 32 44 70 80 70 19 0 40 -9 55 -25z m-575 2 c0 -2 -10 -12
-22 -23 l-23 -19 19 23 c18 21 26 27 26 19z m74 -23 c7 -19 2 -18 -19 6 -16
17 -16 20 -3 15 9 -4 19 -13 22 -21z"/>
<path d="M1900 654 c0 -34 1 -35 33 -32 28 3 32 7 35 36 3 31 2 32 -32 32 -35
0 -36 -1 -36 -36z"/>
<path d="M2042 658 c3 -28 7 -34 32 -36 36 -4 46 6 39 41 -5 23 -10 27 -40 27
-33 0 -34 -2 -31 -32z"/>
<path d="M974 662 c-24 -16 -35 -51 -23 -74 16 -30 28 -38 61 -38 53 0 79 68
40 103 -19 18 -59 22 -78 9z"/>
<path d="M1440 1385 l0 -565 358 0 358 0 22 39 c21 36 22 51 22 246 0 193 -1
210 -21 245 l-22 38 22 36 c21 34 22 46 21 242 -1 185 -3 210 -21 245 l-19 39
-360 0 -360 0 0 -565z m536 221 c3 -8 1 -24 -6 -35 -10 -20 -19 -21 -160 -21
l-150 0 0 28 c0 16 3 32 7 35 3 4 73 7 155 7 119 0 150 -3 154 -14z m-6 -407
c24 -44 11 -47 -152 -46 l-153 2 -3 33 -3 32 150 0 c142 0 151 -1 161 -21z"/>
</g>
</svg>
